<svg xmlns="http://www.w3.org/2000/svg" viewBox="525.28 4.09 334.63 159.01">
  <g data-v-0dd9719b="" [attr.fill]="primaryColor()" class="bordersvg b-d1"
     transform="matrix(1.4214919805526733, 0, 0, 1.4432480335235596, -266.93310546875, 91.26734924316406)" style="">
    <polyline [attr.stroke]="secondaryColor()" stroke-width="5" fill-opacity="0"
              points="626.498 -24.402 626.498 -44.402 772.644 -44.402 772.644 48.038 626.498 48.038 626.498 28.038"
              style="fill-rule: evenodd; paint-order: stroke;" fill="#56b881" />
    <g transform="matrix(0.840384, 0, 0, 1.244843, 557.308777, -38.994991)" style="">
      <g>
        <rect data-gra="graph-name-bg" stroke-width="2" class="i-icon-bg" x="0" y="0" width="221.8800048828125"
              height="52.44000244140625" fill-opacity="0" style="fill-rule: evenodd; paint-order: stroke;" />
      </g>
      <g transform="translate(10,3)">
        <g data-gra="path-name" fill-rule="" class="tp-name">
          <g transform="scale(1)">
            <g>
              <path
                d="M5.19-2.11L5.19-2.11Q4.16-2.7 3.41-3.34 2.67-3.98 2.67-4.72L2.67-4.72Q2.67-6.12 3.87-6.12L3.87-6.12Q4.66-6.12 5.63-5.24 6.59-4.37 7.79-3.71 8.99-3.05 10.4-2.58L10.4-2.58Q13.3-1.61 15.76-1.61 18.22-1.61 19.56-1.93 20.89-2.26 21.8-2.81L21.8-2.81Q23.73-4.01 23.73-5.89L23.73-5.89Q23.73-7.62 22.06-9.38L22.06-9.38Q20.65-10.87 18.08-12.95L18.08-12.95 13.07-16.88Q5.54-22.68 4.19-27.48L4.19-27.48Q3.72-29.15 3.72-31.2 3.72-33.25 4.64-35.24 5.57-37.24 7.38-38.73L7.38-38.73Q11.28-41.98 17.99-41.98L17.99-41.98Q21.42-41.98 24.14-40.97 26.87-39.96 27.86-39.17 28.86-38.38 28.86-37.73L28.86-37.73Q28.86-36.39 27.74-36.39L27.74-36.39Q27.1-36.39 26.37-37.03 25.63-37.68 24.74-38.16 23.85-38.64 22.71-39.02L22.71-39.02Q20.24-39.84 17.87-39.84L17.87-39.84Q13.51-39.84 13.51-36.97L13.51-36.97Q13.51-35.77 14.3-34.75L14.3-34.75Q15.7-32.96 19.79-29.63 23.88-26.31 26.35-23.82 28.83-21.33 30.12-19.34L30.12-19.34Q32.17-16.2 32.17-12.82 32.17-9.43 30.98-7.08 29.79-4.72 27.66-3.02L27.66-3.02Q23.14 0.56 16.46 0.56 9.79 0.56 5.19-2.11ZM51.97 0.56L51.97 0.56Q40.49 0.56 40.49-9.93L40.49-9.93 40.46-29.15 37.09-29Q35.51-29 35.51-30.21 35.51-31.41 37.21-31.41L37.21-31.41 40.02-31.29 40.46-31.29 40.46-35.83 53.03-41.46 53.03-31.29 56.95-31.29 59.74-31.41Q61.46-31.41 61.46-30.18L61.46-30.18Q61.46-29.62 60.98-29.31 60.5-29 59.88-29L59.88-29 56.25-29.15 53.03-29.15 53.03-1.61Q56.46-1.67 58.74-3.57L58.74-3.57Q59.82-4.39 60.28-5.68 60.73-6.97 61.1-7.34 61.46-7.71 61.96-7.71L61.96-7.71Q62.46-7.71 62.81-7.31 63.16-6.91 63.16-6.37 63.16-5.83 62.87-5.17 62.58-4.51 61.99-3.78L61.99-3.78Q60.67-2.14 58.95-1.17L58.95-1.17Q55.81 0.56 51.97 0.56ZM78.4 0.56L78.4 0.56Q68.12 0.56 68.12-9.49L68.12-9.49 68.12-31.29 80.65-31.29 80.65-2.61Q80.95-2.46 81.39-2.46L81.39-2.46 82.35-2.46Q84.7-2.46 87.92-5.63L87.92-5.63Q88.89-6.59 89.74-7.73L89.74-7.73 89.74-31.29 102.33-31.29 102.33 0 89.74 0 89.74-4.51Q84.96 0.56 78.4 0.56ZM134.09 0L134.09-1.61Q130.43 0.56 126.34 0.56 122.26 0.56 119.17-0.66 116.07-1.88 113.88-4.04L113.88-4.04Q109.31-8.58 109.31-15.85L109.31-15.85Q109.31-22.59 113.82-27.07L113.82-27.07Q118.62-31.82 126.36-31.82L126.36-31.82Q130.46-31.82 134.09-30.03L134.09-30.03 134.09-41.46 146.16-41.46 146.16 0 134.09 0ZM125.77-29.68L125.77-29.68Q124.86-29.68 124.04-29.56L124.04-29.56 124.04-1.79Q125.1-1.61 126.33-1.61L126.33-1.61Q130.4-1.61 134.09-4.19L134.09-4.19 134.09-27.42Q130.14-29.68 125.77-29.68ZM161.89-36.42Q158.88-36.42 157.18-37.76 155.48-39.11 155.48-41.31L155.48-41.31Q155.48-43.15 157.35-44.47L157.35-44.47Q159.35-45.88 161.57-45.88 163.8-45.88 165.01-45.44 166.23-45 167.08-44.3L167.08-44.3Q168.78-42.86 168.78-40.96L168.78-40.96Q168.78-39.05 166.85-37.73L166.85-37.73Q164.91-36.42 161.89-36.42ZM155.74 0L155.74-31.29 168.34-31.29 168.34 0 155.74 0ZM202.71-2.52L202.71-2.52Q204.29-2.52 204.29-1.35L204.29-1.35Q204.29-0.82 203.61-0.41 202.94 0 201.33 0L201.33 0 174.05 0 191.4-29.15 182.58-29.15Q180.64-29.15 179.62-28.97L179.62-28.97Q178.24-28.74 177.66-28.74 177.07-28.74 176.67-29.08 176.28-29.41 176.28-29.91L176.28-29.91Q176.28-31.29 179.18-31.29L179.18-31.29 204.55-31.29 188.32-2.14 197.96-2.14Q200.1-2.14 201.01-2.31L201.01-2.31Q202.09-2.52 202.71-2.52Z"
                transform="translate(-2.6700000762939453, 45.880001068115234)"
                style="fill-rule: evenodd; paint-order: stroke;" />
            </g>
          </g>
        </g>
      </g>
    </g>
    <polyline [attr.stroke]="secondaryColor()" stroke-width="5" fill-opacity="0"
              points="646.36 -48.673 646.36 -58.673 790.957 -58.673 790.957 33.767 777.923 33.767"
              style="fill: rgb(86, 184, 129); fill-rule: evenodd; paint-order: stroke;" />
  </g>
</svg>
