<svg xmlns="http://www.w3.org/2000/svg" viewBox="0 0 448 512"><defs><style>.fa-secondary{opacity:.4}</style></defs><path class="fa-secondary" d="M96 32l64 0 0 64L96 96l0-64zm0 192l64 0 0 64-64 0 0-64zm0 192l64 0 0 64-64 0 0-64zM192 32l64 0 0 64-64 0 0-64zm0 96l64 0 0 64-64 0 0-64zm0 96l64 0 0 64-64 0 0-64zm0 96l64 0 0 64-64 0 0-64zm0 96l64 0 0 64-64 0 0-64zM288 32l64 0 0 64-64 0 0-64zm0 192l64 0 0 64-64 0 0-64zm0 192l64 0 0 64-64 0 0-64zM384 32l64 0 0 64-64 0 0-64zm0 96l64 0 0 64-64 0 0-64zm0 96l64 0 0 64-64 0 0-64zm0 96l64 0 0 64-64 0 0-64zm0 96l64 0 0 64-64 0 0-64z"/><path class="fa-primary" d="M0 480L0 32l64 0 0 448L0 480z"/></svg>
